# xmcd
#
# Track frame offsets:
#	150
#	14217
#	27410
#	40440
#	57927
#	75017
#	90490
#	107887
#	119430
#	135242
#	145967
#	165305
#	180475
#	195702
#	211185
#	228575
#	241910
#	254022
#
# Disc length: 3606
#
# Revision: 4
# Processed by: cddbd v1.5.1PL0 Copyright (c) Steve Scherf et al.
# Submitted via: ExactAudioCopy v0.95a4
# Normalized: r3:TDELIM( - )
#
DISCID=f10e1412
DTITLE=Various Artist - Super Country '92
DYEAR=1992
DGENRE=Country
TTITLE0=Billy Dean - Billy The Kid
TTITLE1=Sammy Kershaw - Cadillac Style
TTITLE2=Suzy Bogguss - Outbound Plane
TTITLE3=Ricky Skaggs - Same Ol' Love
TTITLE4=Trisha Yearwood - The Women Before Me
TTITLE5=George Fox - Spice Of Life
TTITLE6=Tanya Tucker - Some Kind Of Trouble
TTITLE7=Vince Gill - Take Your Memory With You
TTITLE8=George Strait - The Chill Of An Early Fall
TTITLE9=Mark Chesnutt - Old Flames Have New Names
TTITLE10=Reba McEntire - For My Broken Heart
TTITLE11=Mike Reid - I"ll Stop Loving You
TTITLE12=Patty Loveless - Jealous Bone
TTITLE13=Ian Tyson - Lights Of Laramie
TTITLE14=Lionel Cartwright - What Kind Of Fool
TTITLE15=Marty Stuart - Burn Me Down
TTITLE16=Patricia Conroy - My Baby Loves Me Just The Way I Am
TTITLE17=Billy Dean - Only The Wind
EXTD=
EXTT0=Billy Dean
EXTT1=Sammy Kershaw
EXTT2=Suzy Bogguss
EXTT3=Ricky Skaggs
EXTT4=Trishia Yearwood
EXTT5=George Fox
EXTT6=Tanya Tucker
EXTT7=Vince Gill
EXTT8=George Strait
EXTT9=Mark Chesnutt
EXTT10=Reba McEntire
EXTT11=Mike Reid
EXTT12=Patty Loveless
EXTT13=Ian Tyson
EXTT14=Lionel Cartwright
EXTT15=Marty Stuart
EXTT16=Patricia Conroy
EXTT17=Billy Dean
PLAYORDER=
